HIERARCHY
ROOT Hips
{
  OFFSET 50.1917 100.473 14.5906
  CHANNELS 6 Xposition Yposition Zposition Zrotation Xrotation Yrotation
  JOINT spine
  {
    OFFSET 0 8.81705 0.507024
    CHANNELS 3 Zrotation Xrotation Yrotation
    JOINT spine1
    {
      OFFSET 0 10.7766 0
      CHANNELS 3 Zrotation Xrotation Yrotation
      JOINT spine2
      {
        OFFSET 0 10.3259 0
        CHANNELS 3 Zrotation Xrotation Yrotation
        JOINT Neck
        {
          OFFSET 0 26.511 1.26395
          CHANNELS 3 Zrotation Xrotation Yrotation
          JOINT Head
          {
            OFFSET 0 8.00966 0
            CHANNELS 3 Zrotation Xrotation Yrotation
            End Site
            {
              OFFSET 0 19.3879 -6.39386
            }
          }
        }
        JOINT RightShoulder
        {
          OFFSET -4.34795 11.1512 -0.605422
          CHANNELS 3 Zrotation Xrotation Yrotation
          JOINT RightArm
          {
            OFFSET 0 14.6258 0
            CHANNELS 3 Zrotation Xrotation Yrotation
            JOINT RightArmRoll
            {
              OFFSET 0 7.3834 0
              CHANNELS 3 Zrotation Xrotation Yrotation
              JOINT RightForeArm
              {
                OFFSET 0 21.5052 0
                CHANNELS 3 Zrotation Xrotation Yrotation
                JOINT RightForeArmRoll
                {
                  OFFSET 0 8.28532 0
                  CHANNELS 3 Zrotation Xrotation Yrotation
                  JOINT RightHand
                  {
                    OFFSET 0 16.6268 0
                    CHANNELS 3 Zrotation Xrotation Yrotation
                    End Site
                    {
                      OFFSET 0 0 0
                    }
                  }
                }
              }
            }
          }
        }
        JOINT LeftShoulder
        {
          OFFSET 4.34795 11.1512 -0.605422
          CHANNELS 3 Zrotation Xrotation Yrotation
          JOINT LeftArm
          {
            OFFSET 0 14.6258 0
            CHANNELS 3 Zrotation Xrotation Yrotation
            JOINT LeftArmRoll
            {
              OFFSET 0 7.3834 0
              CHANNELS 3 Zrotation Xrotation Yrotation
              JOINT LeftForeArm
              {
                OFFSET 0 21.5052 0
                CHANNELS 3 Zrotation Xrotation Yrotation
                JOINT LeftForeArmRoll
                {
                  OFFSET 0 8.28532 0
                  CHANNELS 3 Zrotation Xrotation Yrotation
                  JOINT LeftHand
                  {
                    OFFSET 0 16.6268 0
                    CHANNELS 3 Zrotation Xrotation Yrotation
                    End Site
                    {
                      OFFSET 0 0 0
                    }
                  }
                }
              }
            }
          }
        }
      }
    }
  }
  JOINT RightUpLeg
  {
    OFFSET -7.8151 -1.43309 -1.20217
    CHANNELS 3 Zrotation Xrotation Yrotation
    JOINT RightUpLegRoll
    {
      OFFSET 0 19.4959 0
      CHANNELS 3 Zrotation Xrotation Yrotation
      JOINT RightLeg
      {
        OFFSET 0 -24.1427 0
        CHANNELS 3 Zrotation Xrotation Yrotation
        JOINT RightLegRoll
        {
          OFFSET 0 24.2217 0
          CHANNELS 3 Zrotation Xrotation Yrotation
          JOINT RightFoot
          {
            OFFSET 0 20.1605 0
            CHANNELS 3 Zrotation Xrotation Yrotation
            JOINT RightToeBase
            {
              OFFSET 0 16.8532 0
              CHANNELS 3 Zrotation Xrotation Yrotation
              End Site
              {
                OFFSET 0.00714343 8.16187 -0.94078
              }
            }
          }
        }
      }
    }
  }
  JOINT LeftUpLeg
  {
    OFFSET 7.8151 -1.43309 -1.20217
    CHANNELS 3 Zrotation Xrotation Yrotation
    JOINT LeftUpLegRoll
    {
      OFFSET 0 19.496 0
      CHANNELS 3 Zrotation Xrotation Yrotation
      JOINT LeftLeg
      {
        OFFSET 0 24.1426 0
        CHANNELS 3 Zrotation Xrotation Yrotation
        JOINT LeftLegRoll
        {
          OFFSET 0 24.4456 0
          CHANNELS 3 Zrotation Xrotation Yrotation
          JOINT LeftFoot
          {
            OFFSET 0 19.9366 0
            CHANNELS 3 Zrotation Xrotation Yrotation
            JOINT LeftToeBase
            {
              OFFSET 0 16.8532 0
              CHANNELS 3 Zrotation Xrotation Yrotation
              End Site
              {
                OFFSET -0.0320138 8.16187 -0.94078
              }
            }
          }
        }
      }
    }
  }
}
MOTION
Frames: 9
Frame Time: 0.00208333
65.1985 99.4993 19.4078 -1.32207 3.77601 65.1269 -0.728262 -2.26785 1.05121 -1.42093 -0.546375 2.1675 -1.45104 1.0979 2.19167 -50.4904 4.77225 6.99731 24.9768 -1.25489 1.01282 26.9425 10.0235 15.4442 161.865 27.7643 -37.4561 5.15651e-006 -5.0928e-006 5.51883e-006 24.5269 8.71916 -1.6254 -1.10839e-005 -6.37681e-006 -3.0037 8.02909 -4.95131 0.697485 -81.5655 -15.744 8.47885 -85.633 3.69917 -19.0612 -1.49498e-006 -3.68791e-007 6.73692e-007 -9.40796 6.22199 1.20482 1.3473e-005 6.78244e-008 2.99999 -8.03008 -4.95121 -0.697577 175.184 -9.11056 3.12773 180 7.01484e-015 178.676 177.519 14.2548 179.859 2.07828e-006 -6.62033e-007 0.528188 -21.3101 71.536 22.9592 9.16301 42.9644 -3.03977 177.723 15.0247 5.95882 4.54188e-006 -4.6773e-006 -0.957154 -2.41444 -15.5711 0.227929 1.96951e-006 -2.57939e-006 -0.27821 21.4941 71.1048 -22.5351 -8.13025 25.233 3.48508 
65.2041 99.4926 19.395 -1.30715 3.78383 65.0605 -0.727269 -2.27173 1.04952 -1.41896 -0.554074 2.16302 -1.44887 1.0902 2.18716 -50.355 4.84165 7.10265 24.8311 -1.21875 1.08597 27.0229 9.99853 15.3884 161.632 27.7093 -37.1944 5.15651e-006 -5.0928e-006 5.51883e-006 24.5273 8.5505 -1.57904 -1.10839e-005 -6.37681e-006 -3.0037 8.02909 -4.95131 0.697485 -81.5316 -15.7196 8.47137 -85.6338 3.66995 -19.0358 -1.49498e-006 -3.68791e-007 6.73692e-007 -9.4327 6.23185 1.20517 1.3473e-005 6.78244e-008 2.99999 -8.03008 -4.95121 -0.697577 175.151 -9.0913 3.1389 180 7.01484e-015 178.677 177.522 14.2873 179.861 2.07828e-006 -6.62033e-007 0.53188 -21.3579 71.5814 23.0122 9.14611 42.8818 -3.00315 177.702 15.0061 5.97799 4.54188e-006 -4.6773e-006 -0.957643 -2.40322 -15.5708 0.230037 1.96951e-006 -2.57939e-006 -0.278615 21.4838 71.1003 -22.5295 -8.13025 25.233 3.48508 
65.2247 99.467 19.3848 -1.29185 3.79093 64.9937 -0.726246 -2.27553 1.0481 -1.41697 -0.561608 2.15885 -1.44664 1.08267 2.18298 -50.2165 4.9128 7.20872 24.6818 -1.18276 1.15941 27.1049 9.97388 15.3324 161.395 27.658 -36.9114 5.15651e-006 -5.0928e-006 5.51883e-006 24.5156 8.36052 -1.52775 -1.10839e-005 -6.37681e-006 -3.0037 8.02909 -4.95131 0.697485 -81.4968 -15.6947 8.46369 -85.6352 3.64257 -19.0131 -1.49498e-006 -3.68791e-007 6.73692e-007 -9.45505 6.23487 1.2048 1.3473e-005 6.78244e-008 2.99999 -8.03008 -4.95121 -0.697577 175.118 -9.07266 3.15009 180 7.01484e-015 178.677 177.525 14.3203 179.862 2.07828e-006 -6.62033e-007 0.535662 -21.4078 71.6282 23.0676 9.12927 42.7977 -2.9666 177.68 14.9874 6.00049 4.54188e-006 -4.6773e-006 -0.958136 -2.38796 -15.5731 0.233005 1.96951e-006 -2.57939e-006 -0.279187 21.4687 71.0937 -22.5212 -8.13025 25.233 3.48508 
65.2253 99.4699 19.3651 -1.27617 3.79739 64.9265 -0.725186 -2.27924 1.04692 -1.41493 -0.56898 2.15497 -1.44432 1.0753 2.17907 -50.0753 4.98541 7.31561 24.5292 -1.14655 1.23326 27.1881 9.94955 15.2764 161.155 27.6096 -36.6105 5.15651e-006 -5.0928e-006 5.51883e-006 24.4936 8.15397 -1.47269 -1.10839e-005 -6.37681e-006 -3.0037 8.02909 -4.95131 0.697485 -81.4613 -15.6692 8.45585 -85.6371 3.61706 -18.9929 -1.49498e-006 -3.68791e-007 6.73692e-007 -9.47525 6.23206 1.20382 1.3473e-005 6.78244e-008 2.99999 -8.03008 -4.95121 -0.697577 175.085 -9.05457 3.16132 180 7.01484e-015 178.678 177.527 14.3536 179.864 2.07828e-006 -6.62033e-007 0.53952 -21.4595 71.6763 23.1249 9.1125 42.7125 -2.93006 177.657 14.9684 6.02578 4.54188e-006 -4.6773e-006 -0.958633 -2.36929 -15.5774 0.236697 1.96951e-006 -2.57939e-006 -0.279899 21.4495 71.0851 -22.5106 -8.13025 25.233 3.48508 
65.2173 99.4623 19.3508 -1.26011 3.8033 64.8591 -0.72408 -2.28288 1.04594 -1.41283 -0.576192 2.15133 -1.44191 1.06809 2.17541 -49.932 5.05924 7.42345 24.3737 -1.10979 1.30765 27.2719 9.92553 15.2207 160.913 27.5632 -36.2947 5.15651e-006 -5.0928e-006 5.51883e-006 24.4629 7.93557 -1.41506 -1.10839e-005 -6.37681e-006 -3.0037 8.02909 -4.95131 0.697485 -81.4254 -15.6434 8.44785 -85.6392 3.59344 -18.9747 -1.49498e-006 -3.68791e-007 6.73692e-007 -9.49352 6.22442 1.20234 1.3473e-005 6.78244e-008 2.99999 -8.03008 -4.95121 -0.697577 175.052 -9.03702 3.17261 180 7.01484e-015 178.678 177.529 14.3873 179.865 2.07828e-006 -6.62033e-007 0.543443 -21.5127 71.7255 23.184 9.09578 42.6262 -2.89353 177.633 14.9492 6.05332 4.54188e-006 -4.6773e-006 -0.959133 -2.34785 -15.5834 0.240976 1.96951e-006 -2.57939e-006 -0.280726 21.4268 71.0749 -22.4979 -8.13025 25.233 3.48508 
65.2237 99.4519 19.3352 -1.24369 3.80873 64.7913 -0.722921 -2.28644 1.04511 -1.41064 -0.583248 2.14789 -1.43939 1.06104 2.17195 -49.787 5.13401 7.53235 24.2155 -1.07211 1.38271 27.3558 9.90186 15.1653 160.669 27.518 -35.9672 5.15651e-006 -5.0928e-006 5.51883e-006 24.425 7.71008 -1.35603 -1.10839e-005 -6.37681e-006 -3.0037 8.02909 -4.95131 0.697485 -81.3892 -15.6172 8.43975 -85.6413 3.57174 -18.9583 -1.49498e-006 -3.68791e-007 6.73692e-007 -9.51009 6.21297 1.20047 1.3473e-005 6.78244e-008 2.99999 -8.03008 -4.95121 -0.697577 175.02 -9.01995 3.18397 180 7.01484e-015 178.679 177.532 14.4212 179.867 2.07828e-006 -6.62033e-007 0.547421 -21.5672 71.7754 23.2445 9.07912 42.539 -2.85696 177.609 14.9296 6.08255 4.54188e-006 -4.6773e-006 -0.959637 -2.3243 -15.5906 0.245706 1.96951e-006 -2.57939e-006 -0.281639 21.4012 71.0634 -22.4837 -8.13025 25.233 3.48508 
65.2214 99.4533 19.3185 -1.2269 3.81377 64.7232 -0.721702 -2.28993 1.04439 -1.40835 -0.59015 2.14462 -1.43675 1.05414 2.16865 -49.6408 5.20946 7.64241 24.055 -1.03316 1.45856 27.4393 9.87855 15.1106 160.423 27.4731 -35.6312 5.15651e-006 -5.0928e-006 5.51883e-006 24.3816 7.48221 -1.29675 -1.10839e-005 -6.37681e-006 -3.0037 8.02909 -4.95131 0.697485 -81.3532 -15.5908 8.43154 -85.6435 3.55198 -18.9434 -1.49498e-006 -3.68791e-007 6.73692e-007 -9.52518 6.19872 1.19832 1.3473e-005 6.78244e-008 2.99999 -8.03008 -4.95121 -0.697577 174.987 -9.00334 3.19541 180 7.01485e-015 178.68 177.534 14.4553 179.868 2.07828e-006 -6.62033e-007 0.55144 -21.6227 71.8259 23.3061 9.06252 42.4511 -2.82033 177.584 14.9097 6.11293 4.54188e-006 -4.6773e-006 -0.960144 -2.29928 -15.5985 0.250751 1.96951e-006 -2.57939e-006 -0.282613 21.3736 71.051 -22.4684 -8.13025 25.233 3.48508 
65.2301 99.4509 19.3018 -1.20975 3.81851 64.6549 -0.720415 -2.29333 1.04373 -1.40594 -0.596902 2.14146 -1.43398 1.04739 2.16546 -49.494 5.28533 7.75374 23.8925 -0.992586 1.53535 27.5218 9.85562 15.0568 160.178 27.4278 -35.29 5.15651e-006 -5.0928e-006 5.51883e-006 24.3342 7.25673 -1.23839 -1.10839e-005 -6.37681e-006 -3.0037 8.02909 -4.95131 0.697485 -81.3173 -15.5643 8.42326 -85.6454 3.53417 -18.9298 -1.49498e-006 -3.68791e-007 6.73692e-007 -9.53902 6.18267 1.19602 1.3473e-005 6.78244e-008 2.99999 -8.03008 -4.95121 -0.697577 174.955 -8.98713 3.20695 180 7.01485e-015 178.68 177.536 14.4894 179.87 2.07828e-006 -6.62033e-007 0.555491 -21.6789 71.8768 23.3684 9.04598 42.3625 -2.7836 177.56 14.8895 6.14391 4.54188e-006 -4.6773e-006 -0.960653 -2.27342 -15.6067 0.255974 1.96951e-006 -2.57939e-006 -0.283621 21.3446 71.0379 -22.4523 -8.13025 25.233 3.48508 
65.2083 99.4559 19.3067 -1.19224 3.82302 64.5863 -0.719052 -2.29666 1.04309 -1.40338 -0.603506 2.13838 -1.43106 1.04079 2.16236 -49.347 5.36136 7.86647 23.7284 -0.950042 1.61319 27.6028 9.83308 15.0039 159.933 27.3815 -34.9467 5.15651e-006 -5.0928e-006 5.51883e-006 24.2841 7.03837 -1.1821 -1.10839e-005 -6.37681e-006 -3.0037 8.02909 -4.95131 0.697485 -81.282 -15.5378 8.41494 -85.647 3.51834 -18.9171 -1.49498e-006 -3.68791e-007 6.73692e-007 -9.55183 6.16584 1.19366 1.3473e-005 6.78244e-008 2.99999 -8.03008 -4.95121 -0.697577 174.922 -8.97129 3.21859 180 7.01485e-015 178.681 177.538 14.5235 179.872 2.07828e-006 -6.62033e-007 0.55956 -21.7357 71.9277 23.4313 9.02949 42.2735 -2.74676 177.535 14.8688 6.17493 4.54188e-006 -4.6773e-006 -0.961165 -2.24738 -15.6149 0.261239 1.96951e-006 -2.57939e-006 -0.284637 21.3147 71.0245 -22.4358 -8.13025 25.233 3.48508 
